<svg width="26" height="20" viewBox="0 0 26 20" fill="none" xmlns="http://www.w3.org/2000/svg">
<path d="M25.4242 3.42318L25.4567 3.63551C25.1425 2.52076 24.2942 1.6606 23.2163 1.34751L23.1936 1.3421C21.1667 0.791763 13.0102 0.791763 13.0102 0.791763C13.0102 0.791763 4.8744 0.78093 2.8269 1.3421C1.7284 1.6606 0.87907 2.52076 0.57032 3.61276L0.564903 3.63551C-0.192347 7.59076 -0.197764 12.3433 0.598487 16.5781L0.564903 16.3636C0.87907 17.4783 1.72732 18.3385 2.80524 18.6516L2.82799 18.657C4.85274 19.2084 13.0113 19.2084 13.0113 19.2084C13.0113 19.2084 21.1461 19.2084 23.1947 18.657C24.2942 18.3385 25.1436 17.4783 25.4523 16.3863L25.4577 16.3636C25.8022 14.5241 25.9994 12.4073 25.9994 10.2449C25.9994 10.1658 25.9994 10.0857 25.9983 10.0055C25.9994 9.93185 25.9994 9.8441 25.9994 9.75634C25.9994 7.59293 25.8022 5.4761 25.4242 3.42318ZM10.4081 13.9553V6.0546L17.1962 10.0109L10.4081 13.9553Z" fill="black"/>
</svg>
